<?xml version="1.0" encoding="UTF-8" standalone="no"?>
<svg
   xmlns:dc="http://purl.org/dc/elements/1.1/"
   xmlns:cc="http://creativecommons.org/ns#"
   xmlns:rdf="http://www.w3.org/1999/02/22-rdf-syntax-ns#"
   xmlns:svg="http://www.w3.org/2000/svg"
   xmlns="http://www.w3.org/2000/svg"
   xmlns:sodipodi="http://sodipodi.sourceforge.net/DTD/sodipodi-0.dtd"
   xmlns:inkscape="http://www.inkscape.org/namespaces/inkscape"
   version="1.1"
   x="0px"
   y="0px"
   viewBox="0 0 97 32"
   enable-background="new 0 0 100 100"
   xml:space="preserve"
   id="svg2"
   inkscape:version="0.91 r13725"
   sodipodi:docname="checkbox.svg"
   width="97"
   height="32"><metadata
     id="metadata14"><rdf:RDF><cc:Work
         rdf:about=""><dc:format>image/svg+xml</dc:format><dc:type
           rdf:resource="http://purl.org/dc/dcmitype/StillImage" /><dc:title></dc:title></cc:Work></rdf:RDF></metadata><defs
     id="defs12" /><sodipodi:namedview
     pagecolor="#ffffff"
     bordercolor="#666666"
     borderopacity="1"
     objecttolerance="10"
     gridtolerance="10"
     guidetolerance="10"
     inkscape:pageopacity="0"
     inkscape:pageshadow="2"
     inkscape:window-width="1443"
     inkscape:window-height="957"
     id="namedview10"
     showgrid="false"
     inkscape:zoom="3.776"
     inkscape:cx="95.141403"
     inkscape:cy="16.416816"
     inkscape:window-x="178"
     inkscape:window-y="31"
     inkscape:window-maximized="0"
     inkscape:current-layer="svg2" /><g
     style="font-style:normal;font-weight:normal;font-size:24.44905281px;line-height:125%;font-family:sans-serif;letter-spacing:0px;word-spacing:0px;fill:#000000;fill-opacity:1;stroke:none;stroke-width:1px;stroke-linecap:butt;stroke-linejoin:miter;stroke-opacity:1"
     id="text4133"
     transform="translate(0,-93.264831)"><path
       id="path4144"
       style="font-style:normal;font-variant:normal;font-weight:normal;font-stretch:normal;font-family:'Heiti SC';-inkscape-font-specification:'Heiti SC'"
       d="m 96.381555,119.50363 -2.787192,0 -7.456961,-7.92149 0,7.92149 -2.151517,0 0,-17.89671 2.151517,0 0,6.35676 6.747938,-6.35676 2.884988,0 -8.630515,8.04374 9.241742,9.85297 z m -15.464028,-3.27617 q -2.884988,3.71625 -7.921493,3.71625 -4.254135,0 -6.96798,-2.68939 -2.713845,-2.6894 -2.713845,-6.79684 0,-2.5427 1.246902,-4.69422 1.271351,-2.15151 3.496215,-3.37397 2.224863,-1.22245 4.792014,-1.22245 2.5916,0 4.620871,1.00241 2.05372,0.97796 3.422867,2.88499 l -1.613637,1.2469 q -2.542702,-3.08058 -6.283407,-3.08058 -3.056131,0 -5.280995,2.15152 -2.200415,2.15151 -2.200415,5.28099 0,3.10503 2.151517,5.20765 2.175965,2.07817 5.623282,2.07817 3.447316,0 5.990018,-2.95833 l 1.638086,1.2469 z m -19.440816,-12.54237 -8.312678,0 0,5.1343 8.239331,0 0,2.05372 -8.239331,0 0,6.55235 8.239331,0 0,2.07817 -10.341949,0 0,-17.89671 10.415296,0 0,2.07817 z m -14.318359,15.81854 -2.102619,0 0,-8.48382 -8.581617,0 0,8.48382 -2.127068,0 0,-17.89671 2.127068,0 0,7.35917 8.581617,0 0,-7.35917 2.102619,0 0,17.89671 z m -30.924526,4.88091 c -8.3783889,0 -15.1946395,-6.81592 -15.1946395,-15.19464 0,-8.37838 6.8162506,-15.194638 15.1946395,-15.194638 4.597389,0 8.898348,2.048878 11.799739,5.62151 l 1.136687,1.399568 -12.689348,15.42461 -8.1774367,-8.17776 3.1197607,-3.11975 4.739636,4.73964 7.215575,-8.77094 c -1.957592,-1.735675 -4.480947,-2.705277 -7.144613,-2.705277 -5.945673,0 -10.7830428,4.837367 -10.7830428,10.783037 0,5.94599 4.8373698,10.78305 10.7830428,10.78305 5.94535,0 10.782398,-4.83706 10.782398,-10.78305 l 4.411919,0 c 0,8.37872 -6.815928,15.19464 -15.194317,15.19464 z"
       inkscape:connector-curvature="0" /></g></svg>
