<svg style="position: absolute; width: 0; height: 0; overflow: hidden;" version="1.1" xmlns="http://www.w3.org/2000/svg"
    xmlns:xlink="http://www.w3.org/1999/xlink">
    <defs>
      <symbol id="icon-edit" viewBox="0 0 32 32">
        <title>edit</title>
        <path d="M12 20l4-2 14-14-2-2-14 14-2 4zM9.041 27.097c-0.989-2.085-2.052-3.149-4.137-4.137l3.097-8.525 4-2.435 12-12h-6l-12 12-6 20 20-6 12-12v-6l-12 12-2.435 4z"></path>
      </symbol>
      <symbol id="icon-open" viewBox="0 0 32 32">
        <title>open</title>
        <path d="M26 30l6-16h-26l-6 16zM4 12l-4 18v-26h9l4 4h13v4z"></path>
      </symbol>
      <symbol id="icon-delete" viewBox="0 0 32 32">
        <title>delete</title>
        <path d="M6 32h20l2-22h-24zM20 4v-4h-8v4h-10v6l2-2h24l2 2v-6h-10zM18 4h-4v-2h4v2z"></path>
      </symbol>
      <symbol id="icon-add" viewBox="0 0 32 32">
        <title>add</title>
        <path d="M31 12h-11v-11c0-0.552-0.448-1-1-1h-6c-0.552 0-1 0.448-1 1v11h-11c-0.552 0-1 0.448-1 1v6c0 0.552 0.448 1 1 1h11v11c0 0.552 0.448 1 1 1h6c0.552 0 1-0.448 1-1v-11h11c0.552 0 1-0.448 1-1v-6c0-0.552-0.448-1-1-1z"></path>
      </symbol>
      <symbol id="icon-check" viewBox="0 0 97 32">
        <title>check</title>
        <path d="M96.382 26.239h-2.787l-7.457-7.922v7.922h-2.152v-17.897h2.152v6.357l6.748-6.357h2.885l-8.63 8.044 9.242 9.853zM80.918 22.963q-2.885 3.716-7.921 3.716-4.254 0-6.968-2.689t-2.714-6.797q0-2.543 1.247-4.694 1.271-2.152 3.496-3.374t4.792-1.222q2.592 0 4.621 1.002 2.054 0.978 3.423 2.885l-1.614 1.247q-2.543-3.081-6.283-3.081-3.056 0-5.281 2.152-2.2 2.152-2.2 5.281 0 3.105 2.152 5.208 2.176 2.078 5.623 2.078t5.99-2.958l1.638 1.247zM61.477 10.42h-8.313v5.134h8.239v2.054h-8.239v6.552h8.239v2.078h-10.342v-17.897h10.415v2.078zM47.158 26.239h-2.103v-8.484h-8.582v8.484h-2.127v-17.897h2.127v7.359h8.582v-7.359h2.103v17.897zM16.234 31.12c-8.378 0-15.195-6.816-15.195-15.195s6.816-15.195 15.195-15.195c4.597 0 8.898 2.049 11.8 5.622l1.137 1.4-12.689 15.425-8.177-8.178 3.12-3.12 4.74 4.74 7.216-8.771c-1.958-1.736-4.481-2.705-7.145-2.705-5.946 0-10.783 4.837-10.783 10.783s4.837 10.783 10.783 10.783c5.945 0 10.782-4.837 10.782-10.783h4.412c0 8.379-6.816 15.195-15.194 15.195z"></path>
      </symbol>
      <symbol id="icon-move-vertical" viewBox="0 0 12 32">
        <title>move-vertical</title>
        <path d="M8 20v6h4l-6 6-6-6h4v-6zM4 12v-6h-4l6-6 6 6h-4v6z"></path>
      </symbol>
      <symbol id="icon-user" viewBox="0 0 24 24">
        <title>user</title>
        <path d="M16 14h-8c-2.8 0-5 2.2-5 5v2c0 0.6 0.4 1 1 1s1-0.4 1-1v-2c0-1.7 1.3-3 3-3h8c1.7 0 3 1.3 3 3v2c0 0.6 0.4 1 1 1s1-0.4 1-1v-2c0-2.8-2.2-5-5-5z"></path>
        <path d="M12 12c2.8 0 5-2.2 5-5s-2.2-5-5-5-5 2.2-5 5 2.2 5 5 5zM12 4c1.7 0 3 1.3 3 3s-1.3 3-3 3-3-1.3-3-3 1.3-3 3-3z"></path>
      </symbol>
      <symbol id="icon-docket-logo" viewBox="0 0 138 32">
        <title>docket-logo</title>
        <path fill="#ed1848" d="M21.406 8.182l-12.803 12.494-6.063-5.922-2.365 2.422 8.428 8.232 15.168-14.803-2.364-2.423z"></path>
        <path fill="#073453" d="M87.24 0.277l-3.696 0.636v30.201h3.696v-9.934c0.742 0.503 1.523 1.125 2.345 1.867s1.629 1.563 2.424 2.464c0.795 0.874 1.549 1.801 2.265 2.782 0.742 0.954 1.391 1.894 1.947 2.822h4.332c-0.53-0.927-1.179-1.921-1.947-2.98-0.768-1.086-1.59-2.146-2.464-3.179-0.848-1.060-1.722-2.040-2.623-2.94-0.874-0.901-1.709-1.656-2.503-2.265 0.689-0.715 1.418-1.471 2.186-2.265 0.795-0.821 1.576-1.629 2.345-2.424 0.768-0.821 1.51-1.629 2.225-2.424s1.377-1.523 1.986-2.185h-4.331c-0.477 0.556-1.047 1.205-1.709 1.947-0.662 0.715-1.364 1.47-2.106 2.265s-1.497 1.576-2.265 2.345l-2.106 2.107v-18.836zM21.745 0.466c-4.016 0-8.032 1.527-11.086 4.581l2.393 2.393c4.815-4.815 12.57-4.815 17.385 0s4.815 12.57 0 17.385c-4.815 4.815-12.57 4.815-17.385 0l-2.393 2.393c6.109 6.109 16.064 6.109 22.173 0s6.109-16.064 0-22.172c-3.054-3.054-7.071-4.581-11.087-4.581zM128.99 4.052l-3.696 0.636v18.438c0 1.378 0.106 2.596 0.318 3.655 0.238 1.033 0.636 1.907 1.192 2.623s1.285 1.259 2.186 1.63c0.927 0.344 2.093 0.516 3.497 0.516 1.192 0 2.252-0.145 3.179-0.437 0.927-0.265 1.576-0.49 1.947-0.676l-0.715-3.060c-0.265 0.106-0.742 0.291-1.431 0.556-0.662 0.238-1.549 0.358-2.662 0.358-0.636 0-1.193-0.079-1.67-0.238s-0.874-0.424-1.192-0.795c-0.318-0.397-0.556-0.927-0.715-1.59-0.159-0.689-0.238-1.55-0.238-2.583v-9.537h7.828v-3.099h-7.828v-6.398zM50.177 9.933c-1.404 0-2.702 0.265-3.894 0.795-1.192 0.503-2.225 1.232-3.1 2.185-0.848 0.954-1.51 2.106-1.987 3.457-0.477 1.325-0.715 2.795-0.715 4.411 0 1.642 0.238 3.126 0.715 4.45s1.139 2.463 1.987 3.417c0.874 0.954 1.908 1.695 3.1 2.225 1.192 0.503 2.49 0.755 3.894 0.755s2.702-0.252 3.894-0.755c1.192-0.53 2.212-1.272 3.060-2.225 0.874-0.954 1.55-2.093 2.027-3.417s0.715-2.808 0.715-4.45c0-1.616-0.238-3.087-0.715-4.411-0.477-1.351-1.153-2.504-2.027-3.457-0.848-0.954-1.868-1.682-3.060-2.185-1.192-0.53-2.49-0.795-3.894-0.795zM73.815 9.933c-1.51 0-2.888 0.278-4.133 0.834-1.219 0.53-2.251 1.285-3.099 2.265-0.848 0.954-1.51 2.093-1.987 3.417-0.45 1.325-0.676 2.782-0.676 4.371s0.212 3.046 0.636 4.371c0.424 1.298 1.060 2.424 1.908 3.378 0.874 0.954 1.934 1.695 3.179 2.225 1.272 0.53 2.742 0.795 4.411 0.795 0.53 0 1.073-0.040 1.629-0.119 0.583-0.053 1.126-0.132 1.63-0.238 0.503-0.079 0.953-0.172 1.351-0.278 0.397-0.132 0.702-0.265 0.914-0.398l-0.516-3.1c-0.45 0.212-1.073 0.411-1.868 0.596s-1.683 0.278-2.663 0.278c-1.219 0-2.251-0.173-3.099-0.517-0.848-0.371-1.55-0.887-2.106-1.549-0.53-0.662-0.927-1.457-1.192-2.384-0.238-0.927-0.358-1.948-0.358-3.060 0-2.49 0.543-4.384 1.629-5.682 1.113-1.298 2.702-1.947 4.769-1.947 0.821 0 1.59 0.080 2.305 0.239 0.742 0.159 1.391 0.371 1.947 0.636l0.834-3.139c-0.848-0.344-1.736-0.596-2.663-0.755s-1.854-0.239-2.782-0.239zM111.601 9.933c-1.192 0-2.357 0.225-3.497 0.676s-2.146 1.126-3.020 2.026c-0.874 0.901-1.576 2.040-2.106 3.418-0.53 1.351-0.795 2.94-0.795 4.768 0 1.563 0.199 3.007 0.596 4.332 0.424 1.298 1.059 2.424 1.907 3.378s1.921 1.708 3.219 2.265c1.325 0.53 2.887 0.795 4.689 0.795 1.431 0 2.703-0.133 3.815-0.398 1.139-0.265 1.934-0.517 2.384-0.755l-0.517-3.1c-0.45 0.212-1.126 0.437-2.026 0.676-0.874 0.212-1.96 0.318-3.258 0.318-2.305 0-4-0.556-5.086-1.669s-1.709-2.742-1.868-4.888h14.146c0.026-0.212 0.040-0.437 0.040-0.676v-0.636c0-3.55-0.742-6.186-2.226-7.908-1.484-1.748-3.616-2.623-6.397-2.623zM111.561 13.072c1.51 0 2.689 0.543 3.537 1.629 0.874 1.060 1.298 2.424 1.271 4.093h-10.252c0.079-0.715 0.239-1.417 0.477-2.106 0.265-0.689 0.622-1.299 1.073-1.828s0.994-0.953 1.63-1.271c0.662-0.344 1.418-0.516 2.265-0.516zM50.177 13.191c1.801 0 3.218 0.689 4.252 2.066 1.060 1.351 1.59 3.192 1.59 5.524s-0.53 4.185-1.59 5.563c-1.033 1.351-2.45 2.026-4.252 2.026s-3.232-0.675-4.292-2.026c-1.033-1.378-1.55-3.232-1.55-5.563s0.516-4.173 1.55-5.524c1.060-1.378 2.49-2.066 4.292-2.066z"></path>
      </symbol>
      <symbol id="icon-lifebuoy" viewBox="0 0 32 32">
        <title>lifebuoy</title>
        <path d="M16 0c-8.837 0-16 7.163-16 16s7.163 16 16 16 16-7.163 16-16-7.163-16-16-16zM10 16c0-3.314 2.686-6 6-6s6 2.686 6 6-2.686 6-6 6-6-2.686-6-6zM28.937 21.359v0l-5.544-2.297c0.391-0.943 0.608-1.977 0.608-3.062s-0.216-2.119-0.608-3.062l5.544-2.297c0.685 1.651 1.063 3.46 1.063 5.359s-0.379 3.708-1.063 5.359v0zM21.359 3.063v0 0l-2.297 5.544c-0.943-0.391-1.977-0.607-3.062-0.607s-2.119 0.216-3.062 0.607l-2.297-5.544c1.651-0.684 3.46-1.063 5.359-1.063s3.708 0.379 5.359 1.063zM3.063 10.641l5.544 2.297c-0.391 0.943-0.608 1.977-0.608 3.062s0.216 2.119 0.607 3.062l-5.544 2.297c-0.685-1.651-1.063-3.46-1.063-5.359s0.379-3.708 1.063-5.359zM10.641 28.937l2.297-5.544c0.943 0.391 1.977 0.608 3.062 0.608s2.119-0.216 3.062-0.608l2.297 5.544c-1.651 0.684-3.46 1.063-5.359 1.063s-3.708-0.379-5.359-1.063z"></path>
      </symbol>
      <symbol id="icon-key" viewBox="0 0 32 32">
        <title>key</title>
        <path d="M13.009 22l-1.5 1.5 2.5 2.5-3 3-2.5-2.5-1.875 1.875c-0.841 0.841-2.204 0.845-3.042 0.007l0.035 0.035c-0.837-0.837-0.835-2.2 0.007-3.042l12.157-12.157c-0.5-0.963-0.782-2.058-0.782-3.218 0-3.866 3.134-7 7-7s7 3.134 7 7c0 3.866-3.134 7-7 7-1.16 0-2.255-0.282-3.218-0.782v0l-2.782 2.782 2 2-3 3-2-2zM22.009 14c2.209 0 4-1.791 4-4s-1.791-4-4-4c-2.209 0-4 1.791-4 4s1.791 4 4 4v0z"></path>
      </symbol>
      <symbol id="icon-log-out" viewBox="0 0 20 20">
        <title>log-out</title>
        <path d="M19 10l-6-5v3h-7v4h7v3l6-5zM3 3h8v-2h-8c-1.1 0-2 0.9-2 2v14c0 1.1 0.9 2 2 2h8v-2h-8v-14z"></path>
      </symbol>
    </defs>
  </svg>
